<svg width="40" height="40" viewBox="0 0 40 40" fill="none" xmlns="http://www.w3.org/2000/svg">
<path d="M20 0.5C16.1433 0.5 12.3731 1.64366 9.16639 3.78634C5.95963 5.92903 3.46027 8.97451 1.98436 12.5377C0.508449 16.1008 0.122284 20.0216 0.874696 23.8043C1.62711 27.5869 3.4843 31.0615 6.21143 33.7886C8.93855 36.5157 12.4131 38.3729 16.1957 39.1253C19.9784 39.8777 23.8992 39.4916 27.4623 38.0156C31.0255 36.5397 34.071 34.0404 36.2137 30.8336C38.3564 27.6269 39.5 23.8567 39.5 20C39.4945 14.83 37.4383 9.87322 33.7826 6.21745C30.1268 2.56167 25.1701 0.50546 20 0.5ZM9.51688 32.7331C9.67063 32.5456 9.82438 32.3713 9.97063 32.1875C10.0937 32.0335 10.1853 31.8567 10.2401 31.6673C10.2949 31.4779 10.3119 31.2796 10.29 31.0836C10.2682 30.8876 10.208 30.6979 10.1128 30.5252C10.0176 30.3525 9.88934 30.2003 9.73532 30.0772C9.5813 29.9541 9.40455 29.8625 9.21514 29.8077C9.02574 29.7529 8.82739 29.7359 8.63143 29.7578C8.43547 29.7796 8.24573 29.8399 8.07305 29.935C7.90037 30.0302 7.74812 30.1585 7.62501 30.3125L7.37376 30.6162C4.8686 27.646 3.49451 23.8856 3.49451 20C3.49451 16.1144 4.8686 12.354 7.37376 9.38375L7.62501 9.6875C7.74812 9.84152 7.90037 9.96977 8.07305 10.065C8.24573 10.1601 8.43547 10.2204 8.63143 10.2422C8.82739 10.2641 9.02574 10.2471 9.21514 10.1923C9.40455 10.1375 9.5813 10.0459 9.73532 9.92281C9.88934 9.7997 10.0176 9.64745 10.1128 9.47477C10.208 9.30209 10.2682 9.11235 10.29 8.91639C10.3119 8.72043 10.2949 8.52208 10.2401 8.33268C10.1853 8.14327 10.0937 7.96652 9.97063 7.8125C9.82438 7.625 9.67063 7.4375 9.51688 7.26688C12.4677 4.83174 16.1742 3.49983 20 3.49983C23.8258 3.49983 27.5323 4.83174 30.4831 7.26688C30.3294 7.45438 30.1756 7.62687 30.0294 7.8125C29.9063 7.96652 29.8147 8.14327 29.7599 8.33268C29.7051 8.52208 29.6881 8.72043 29.71 8.91639C29.7318 9.11235 29.7921 9.30209 29.8872 9.47477C29.9824 9.64745 30.1107 9.7997 30.2647 9.92281C30.4187 10.0459 30.5955 10.1375 30.7849 10.1923C30.9743 10.2471 31.1726 10.2641 31.3686 10.2422C31.5645 10.2204 31.7543 10.1601 31.927 10.065C32.0996 9.96977 32.2519 9.84152 32.375 9.6875L32.6263 9.38375C35.1314 12.354 36.5055 16.1144 36.5055 20C36.5055 23.8856 35.1314 27.646 32.6263 30.6162L32.375 30.3125C32.2543 30.1519 32.1026 30.0171 31.9288 29.9162C31.7551 29.8153 31.5628 29.7504 31.3635 29.7252C31.1641 29.7001 30.9618 29.7153 30.7684 29.7698C30.575 29.8244 30.3946 29.9172 30.2378 30.0429C30.081 30.1685 29.951 30.3244 29.8556 30.5012C29.7602 30.678 29.7013 30.8722 29.6824 31.0723C29.6635 31.2723 29.6849 31.4741 29.7455 31.6657C29.8061 31.8572 29.9045 32.0347 30.035 32.1875C30.1813 32.375 30.335 32.5531 30.4888 32.7331C27.538 35.1683 23.8315 36.5002 20.0056 36.5002C16.1798 36.5002 12.4733 35.1683 9.52251 32.7331H9.51688ZM13.9794 23.2475C13.793 24.3539 13.512 25.4423 13.1394 26.5006C13.0066 26.8758 12.7302 27.1829 12.371 27.3543C12.0118 27.5258 11.5993 27.5475 11.2241 27.4147C10.8489 27.2819 10.5418 27.0055 10.3704 26.6463C10.1989 26.2871 10.1772 25.8746 10.31 25.4994C10.6261 24.6061 10.8639 23.687 11.0206 22.7525C11.0515 22.5568 11.1209 22.3691 11.2247 22.2003C11.3285 22.0315 11.4648 21.885 11.6255 21.7692C11.7863 21.6534 11.9685 21.5706 12.1614 21.5255C12.3544 21.4805 12.5544 21.4741 12.7498 21.5068C12.9452 21.5395 13.1323 21.6106 13.3001 21.716C13.4679 21.8214 13.6131 21.959 13.7275 22.1209C13.8418 22.2827 13.9229 22.4656 13.9662 22.659C14.0094 22.8523 14.0139 23.0524 13.9794 23.2475ZM13.9794 16.7525C14.045 17.1449 13.9521 17.5472 13.7211 17.8711C13.4901 18.1949 13.1399 18.4137 12.7475 18.4794C12.6657 18.4927 12.5829 18.4996 12.5 18.5C12.1454 18.4995 11.8025 18.3735 11.532 18.1442C11.2615 17.9149 11.081 17.5972 11.0225 17.2475C10.8658 16.313 10.628 15.3939 10.3119 14.5006C10.1791 14.1254 10.2008 13.7129 10.3722 13.3537C10.5437 12.9945 10.8507 12.7181 11.2259 12.5853C11.6011 12.4525 12.0137 12.4742 12.3729 12.6457C12.7321 12.8171 13.0085 13.1242 13.1413 13.4994C13.5132 14.5578 13.7937 15.6461 13.9794 16.7525ZM28.775 27.4137C28.4001 27.5465 27.9877 27.5248 27.6287 27.3536C27.2697 27.1823 26.9935 26.8755 26.8606 26.5006C26.488 25.4423 26.207 24.3539 26.0206 23.2475C25.9861 23.0524 25.9906 22.8523 26.0339 22.659C26.0771 22.4656 26.1582 22.2827 26.2726 22.1209C26.3869 21.959 26.5321 21.8214 26.6999 21.716C26.8677 21.6106 27.0548 21.5395 27.2502 21.5068C27.4456 21.4741 27.6456 21.4805 27.8386 21.5255C28.0316 21.5706 28.2137 21.6534 28.3745 21.7692C28.5352 21.885 28.6715 22.0315 28.7753 22.2003C28.8791 22.3691 28.9485 22.5568 28.9794 22.7525C29.1361 23.687 29.3739 24.6061 29.69 25.4994C29.7557 25.6852 29.7841 25.882 29.7736 26.0788C29.7632 26.2756 29.7141 26.4684 29.6291 26.6461C29.5441 26.8239 29.425 26.9832 29.2784 27.1149C29.1319 27.2466 28.9608 27.3482 28.775 27.4137ZM26.0206 16.7525C26.207 15.6461 26.488 14.5577 26.8606 13.4994C26.9934 13.1242 27.2698 12.8171 27.629 12.6457C27.9882 12.4742 28.4007 12.4525 28.7759 12.5853C29.1511 12.7181 29.4582 12.9945 29.6297 13.3537C29.8011 13.7129 29.8228 14.1254 29.69 14.5006C29.3739 15.3939 29.1361 16.313 28.9794 17.2475C28.9208 17.5975 28.74 17.9155 28.4692 18.1448C28.1983 18.3741 27.8549 18.5 27.5 18.5C27.4165 18.4997 27.3331 18.4928 27.2506 18.4794C26.8586 18.4133 26.5089 18.1943 26.2783 17.8705C26.0476 17.5467 25.955 17.1446 26.0206 16.7525Z" fill="white"/>
</svg>
