<svg width="43" height="41" viewBox="0 0 43 41" fill="none" xmlns="http://www.w3.org/2000/svg">
<path d="M42.1833 15.242C42.0016 14.6821 41.6592 14.188 41.1988 13.8213C40.7384 13.4545 40.1802 13.2313 39.5939 13.1795L28.4583 12.2195L24.0933 1.83949C23.866 1.29483 23.4827 0.829591 22.9915 0.502347C22.5004 0.175103 21.9234 0.000488281 21.3333 0.000488281C20.7431 0.000488281 20.1661 0.175103 19.675 0.502347C19.1839 0.829591 18.8005 1.29483 18.5733 1.83949L14.2214 12.2195L3.07264 13.1851C2.48396 13.2346 1.92299 13.4568 1.46007 13.8238C0.997146 14.1908 0.65289 14.6863 0.470467 15.2482C0.288044 15.8101 0.275575 16.4133 0.434624 16.9823C0.593673 17.5512 0.917161 18.0605 1.36452 18.4464L9.82264 25.8376L7.28764 36.8139C7.1536 37.3883 7.19185 37.9894 7.39761 38.5422C7.60337 39.095 7.96751 39.5748 8.44451 39.9218C8.92151 40.2687 9.49019 40.4673 10.0795 40.4928C10.6687 40.5183 11.2525 40.3696 11.7576 40.0651L21.3201 34.2526L30.9033 40.0651C31.4084 40.3696 31.9922 40.5183 32.5814 40.4928C33.1707 40.4673 33.7394 40.2687 34.2164 39.9218C34.6934 39.5748 35.0575 39.095 35.2633 38.5422C35.4691 37.9894 35.5073 37.3883 35.3733 36.8139L32.8401 25.8264L41.2964 18.4464C41.7437 18.0592 42.0665 17.5484 42.2243 16.9783C42.3822 16.4081 42.3679 15.804 42.1833 15.242ZM39.3295 16.1795L30.8733 23.5595C30.4617 23.9175 30.1555 24.3809 29.9877 24.8999C29.8199 25.419 29.7967 25.9739 29.9208 26.5051L32.4614 37.5001L22.8858 31.6876C22.4186 31.4031 21.8821 31.2526 21.3351 31.2526C20.7882 31.2526 20.2517 31.4031 19.7845 31.6876L10.222 37.5001L12.7458 26.5126C12.8698 25.9814 12.8467 25.4265 12.6788 24.9074C12.511 24.3884 12.2048 23.925 11.7933 23.567L3.33327 16.1907C3.33258 16.1851 3.33258 16.1795 3.33327 16.1739L14.4783 15.2101C15.0224 15.1622 15.5431 14.9665 15.9842 14.6444C16.4253 14.3222 16.7701 13.8857 16.9814 13.382L21.3333 3.01511L25.6833 13.382C25.8945 13.8857 26.2393 14.3222 26.6804 14.6444C27.1216 14.9665 27.6423 15.1622 28.1864 15.2101L39.3333 16.1739C39.3333 16.1739 39.3333 16.1851 39.3333 16.187L39.3295 16.1795Z" fill="white"/>
</svg>
