<svg width="46" height="39" viewBox="0 0 46 39" fill="none" xmlns="http://www.w3.org/2000/svg">
<path d="M20.4167 30C20.4167 30.3978 20.2587 30.7794 19.9773 31.0607C19.696 31.342 19.3145 31.5 18.9167 31.5H13.6667C13.2689 31.5 12.8873 31.342 12.606 31.0607C12.3247 30.7794 12.1667 30.3978 12.1667 30C12.1667 29.6022 12.3247 29.2206 12.606 28.9393C12.8873 28.658 13.2689 28.5 13.6667 28.5H18.9167C19.3145 28.5 19.696 28.658 19.9773 28.9393C20.2587 29.2206 20.4167 29.6022 20.4167 30ZM31.6667 28.5H26.4167C26.0189 28.5 25.6373 28.658 25.356 28.9393C25.0747 29.2206 24.9167 29.6022 24.9167 30C24.9167 30.3978 25.0747 30.7794 25.356 31.0607C25.6373 31.342 26.0189 31.5 26.4167 31.5H31.6667C32.0645 31.5 32.446 31.342 32.7273 31.0607C33.0087 30.7794 33.1667 30.3978 33.1667 30C33.1667 29.6022 33.0087 29.2206 32.7273 28.9393C32.446 28.658 32.0645 28.5 31.6667 28.5ZM45.1667 37.5C45.1667 37.8978 45.0087 38.2794 44.7273 38.5607C44.446 38.842 44.0645 39 43.6667 39H1.66669C1.26886 39 0.887331 38.842 0.606027 38.5607C0.324722 38.2794 0.166687 37.8978 0.166687 37.5C0.166687 37.1022 0.324722 36.7206 0.606027 36.4393C0.887331 36.158 1.26886 36 1.66669 36H4.66669V13.5C4.66669 13.2214 4.74426 12.9484 4.89071 12.7114C5.03716 12.4744 5.24671 12.2829 5.49587 12.1584C5.74503 12.0338 6.02395 11.981 6.3014 12.0061C6.57884 12.0311 6.84383 12.1329 7.06669 12.3L16.6667 19.5V13.5C16.6667 13.2214 16.7443 12.9484 16.8907 12.7114C17.0372 12.4744 17.2467 12.2829 17.4959 12.1584C17.745 12.0338 18.024 11.981 18.3014 12.0061C18.5788 12.0311 18.8438 12.1329 19.0667 12.3L26.3304 17.7469L28.4979 2.57625C28.6029 1.86254 28.9603 1.21012 29.5052 0.737424C30.0502 0.264728 30.7466 0.00308876 31.4679 0H34.8654C35.5868 0.00308876 36.2832 0.264728 36.8281 0.737424C37.3731 1.21012 37.7305 1.86254 37.8354 2.57625L40.6479 22.2881C40.6479 22.2881 40.6629 22.4344 40.6629 22.5V36H43.6629C43.8602 35.9995 44.0557 36.0379 44.2381 36.1131C44.4205 36.1883 44.5863 36.2987 44.726 36.438C44.8657 36.5773 44.9765 36.7429 45.0521 36.9251C45.1278 37.1073 45.1667 37.3027 45.1667 37.5ZM29.0679 19.8L30.6673 21H37.4379L34.8654 3H31.4679L29.0679 19.8ZM7.66669 36H37.6667V24H30.1667C29.8421 24 29.5263 23.8947 29.2667 23.7L26.5667 21.675L19.6667 16.5V22.5C19.6667 22.7786 19.5891 23.0516 19.4427 23.2886C19.2962 23.5256 19.0867 23.7171 18.8375 23.8416C18.5883 23.9662 18.3094 24.019 18.032 23.9939C17.7545 23.9689 17.4895 23.8671 17.2667 23.7L7.66669 16.5V36Z" fill="white"/>
</svg>
