<svg width="32" height="32" viewBox="0 0 32 32" fill="none" xmlns="http://www.w3.org/2000/svg">
<path d="M28.6324 6.73636C28.4896 5.8948 28.0887 5.11847 27.4851 4.51489C26.8815 3.91132 26.1052 3.51038 25.2637 3.36761C21.2162 2.68136 13.5899 2.36761 7.9799 7.98011C2.3699 13.5926 2.68115 21.2176 3.3674 25.2639C3.51056 26.1063 3.91242 26.8833 4.5172 27.4869C5.12199 28.0906 5.89971 28.491 6.7424 28.6326C8.16009 28.8744 9.5955 28.9973 11.0337 29.0001C15.0449 29.0001 20.0399 28.0001 24.0199 24.0201C29.6312 18.4101 29.3187 10.7826 28.6324 6.73636ZM7.0699 26.6626C6.63717 26.589 6.23801 26.3828 5.92763 26.0724C5.61725 25.762 5.411 25.3628 5.3374 24.9301C4.99431 22.9958 4.90565 21.0249 5.07365 19.0676L12.9324 26.9264C10.9751 27.0944 9.00422 27.0057 7.0699 26.6626ZM20.7049 12.7089L18.9124 14.5001L19.7049 15.2926C19.8037 15.384 19.8831 15.4945 19.9382 15.6173C19.9933 15.7401 20.023 15.8728 20.0256 16.0074C20.0281 16.142 20.0035 16.2758 19.9532 16.4006C19.9028 16.5255 19.8278 16.6389 19.7325 16.734C19.6373 16.8292 19.5238 16.9041 19.3989 16.9544C19.274 17.0046 19.1403 17.0291 19.0057 17.0264C18.8711 17.0237 18.7384 16.9939 18.6156 16.9386C18.4929 16.8834 18.3825 16.804 18.2912 16.7051L17.4999 15.9139L15.9137 17.5001L16.7062 18.2926C16.805 18.384 16.8845 18.4943 16.9397 18.6171C16.9949 18.7399 17.0248 18.8726 17.0275 19.0071C17.0302 19.1417 17.0056 19.2755 16.9554 19.4004C16.9052 19.5253 16.8302 19.6388 16.7351 19.734C16.6399 19.8292 16.5265 19.9043 16.4017 19.9546C16.2768 20.005 16.1431 20.0296 16.0085 20.027C15.8739 20.0244 15.7412 19.9947 15.6184 19.9396C15.4955 19.8845 15.3851 19.8052 15.2937 19.7064L14.4999 18.9126L12.7074 20.7051C12.6155 20.8019 12.5051 20.8793 12.3828 20.9327C12.2605 20.9861 12.1287 21.0145 11.9952 21.0163C11.8618 21.018 11.7293 20.9929 11.6057 20.9426C11.482 20.8924 11.3697 20.8178 11.2753 20.7234C11.1809 20.6291 11.1064 20.5167 11.0561 20.3931C11.0058 20.2695 10.9808 20.137 10.9825 20.0035C10.9842 19.8701 11.0126 19.7383 11.0661 19.616C11.1195 19.4937 11.1969 19.3833 11.2937 19.2914L13.0874 17.5001L12.2949 16.7076C12.1196 16.5178 12.0245 16.2674 12.0297 16.009C12.0349 15.7507 12.1399 15.5043 12.3227 15.3217C12.5055 15.139 12.752 15.0342 13.0103 15.0293C13.2687 15.0243 13.519 15.1196 13.7087 15.2951L14.5012 16.0876L16.0862 14.5001L15.2937 13.7076C15.1181 13.5179 15.0229 13.2677 15.0278 13.0093C15.0328 12.7509 15.1376 12.5045 15.3202 12.3217C15.5029 12.1389 15.7492 12.0338 16.0076 12.0287C16.266 12.0235 16.5163 12.1185 16.7062 12.2939L17.4999 13.0876L19.2924 11.2951C19.3843 11.1983 19.4947 11.121 19.617 11.0675C19.7393 11.0141 19.8711 10.9857 20.0046 10.984C20.138 10.9823 20.2705 11.0073 20.3941 11.0576C20.5178 11.1079 20.6301 11.1824 20.7245 11.2768C20.8189 11.3712 20.8934 11.4835 20.9437 11.6071C20.994 11.7308 21.019 11.8632 21.0173 11.9967C21.0156 12.1301 20.9872 12.2619 20.9337 12.3842C20.8803 12.5065 20.8029 12.6169 20.7062 12.7089H20.7049ZM26.9262 12.9326L19.0674 5.07386C19.6624 5.01886 20.2824 4.98761 20.9312 4.98761C22.2719 4.99234 23.6099 5.10942 24.9312 5.33761C25.3637 5.41144 25.7625 5.6178 26.0727 5.92816C26.3828 6.23852 26.5889 6.63755 26.6624 7.07011C27.0055 9.00442 27.0942 10.9753 26.9262 12.9326Z" fill="black"/>
</svg>
